<svg xmlns="http://www.w3.org/2000/svg" width="56" height="24" viewBox="0 0 56 24" role="img" aria-label="Apple Pay">
  <rect x="0.5" y="0.5" width="55" height="23" rx="4.5" fill="#ffffff" stroke="#d9d9d9"/>
  <g fill="#000000">
    <path d="M14.7 8.05c.49-.59.82-1.4.73-2.21-.7.03-1.55.47-2.06 1.06-.46.52-.85 1.35-.74 2.14.78.06 1.58-.4 2.07-.99z"/>
    <path d="M15.42 9.2c-1.14-.07-2.11.65-2.65.65-.55 0-1.38-.61-2.28-.6-1.17.02-2.25.68-2.85 1.73-1.22 2.11-.31 5.23.87 6.95.58.84 1.27 1.78 2.18 1.75.87-.04 1.2-.56 2.25-.56s1.35.56 2.27.55c.94-.02 1.53-.86 2.1-1.7.66-.97.94-1.91.95-1.96-.02-.01-1.82-.7-1.84-2.76-.02-1.73 1.41-2.56 1.48-2.6-.81-1.19-2.07-1.33-2.51-1.36z"/>
  </g>
  <text x="24" y="16.5" font-family="-apple-system, Helvetica, Arial, sans-serif" font-size="11" font-weight="600" fill="#000000">Pay</text>
</svg>
